<?xml version="1.0" encoding="utf-8"?>
<!-- Generator: Adobe Illustrator 29.8.4, SVG Export Plug-In . SVG Version: 9.03 Build 0)  -->
<svg version="1.0" id="Capa_1" xmlns="http://www.w3.org/2000/svg" xmlns:xlink="http://www.w3.org/1999/xlink" x="0px" y="0px"
	 viewBox="0 0 1920 1080" style="enable-background:new 0 0 1920 1080;" xml:space="preserve">
<style type="text/css">
	.st0{fill-rule:evenodd;clip-rule:evenodd;}
	.st1{fill-rule:evenodd;clip-rule:evenodd;fill:#0799D2;stroke:#0799D2;stroke-miterlimit:10;}
</style>
<path class="st0" d="M617.77,277.96c-0.18,0.47-0.23,25.95-0.11,56.6l0.22,55.74l62.12,0.23c34.17,0.13,63,0.02,64.07-0.23
	c1.94-0.47,1.95-0.55,1.71-13.96l-0.24-13.48l-49.48-0.22l-49.48-0.22v-15.41l45.78,0.09c25.18,0.05,46.1-0.11,46.48-0.35
	c0.85-0.53,0.78-24.83-0.08-26.21c-0.43-0.7-13.33-0.97-46.42-0.97h-45.83l0.5-14.72l48.04,0.1c26.43,0.05,48.69-0.15,49.48-0.45
	c1.26-0.48,1.44-2.18,1.44-13.69c0-11.78-0.16-13.19-1.5-13.59C741.55,276.32,618.12,277.06,617.77,277.96 M757.34,277.29
	c-0.84,0.31-1.07,12.37-1.07,56.39c0,50.28,0.14,56.06,1.35,56.53c2.65,1.02,26.53,0.58,27.61-0.51c0.78-0.78,1.03-14.4,1.03-56.06
	c0-46.08-0.19-55.2-1.2-56.03C783.9,276.65,759.86,276.37,757.34,277.29 M821.89,304.92c-25.85,25.91-28.1,28.4-26.99,29.81
	c0.67,0.85,1.45,1.73,1.73,1.97c0.88,0.72,17.86,16.32,25.2,23.15c4.98,4.62,9.98,9.21,15.02,13.78
	c4.46,4.04,10.52,9.54,13.45,12.22l5.35,4.88h17.9c14.48,0,18.09-0.23,18.91-1.23c1.07-1.29,0.81-1.56-15.81-16.78
	c-5.16-4.73-10.32-9.47-15.46-14.21c-6.05-5.57-12.1-11.12-18.17-16.66c-4.83-4.41-8.78-8.24-8.78-8.52s12.15-12.65,27-27.48
	c14.85-14.84,26.86-27.37,26.71-27.85c-0.19-0.56-7.22-0.96-19.07-1.1l-18.78-0.23L821.89,304.92z M898.18,277.3
	c-0.29,0.29-0.52,25.46-0.52,55.95c0,41.96,0.25,55.67,1.03,56.45c1.08,1.09,24.96,1.53,27.61,0.51c1.2-0.46,1.35-4.55,1.35-37.3
	c0-22.67,0.31-36.78,0.81-36.78c0.45,0,1.12,0.54,1.5,1.2s4.31,5.01,8.74,9.65c10.71,11.22,45.83,47.59,54.67,56.61l7.03,7.18
	l27.93-0.47l0.22-55.74c0.2-51.64,0.11-55.82-1.23-56.81c-1.83-1.35-24.45-1.49-26.91-0.18c-1.62,0.87-1.67,2.02-1.62,36.55
	c0.03,19.61-0.09,35.8-0.27,35.97c-0.18,0.18-4.31-3.82-9.19-8.9c-4.88-5.07-17.95-18.59-29.06-30.05s-22.9-23.71-26.19-27.22
	l-6-6.39l-14.68-0.38C905.32,276.95,898.47,277.01,898.18,277.3 M1355.15,278.06c-0.47,0.57-0.7,23.49-0.57,56.59l0.22,55.65h155.09
	l0.23-13.93l0.23-13.93l-63.21-0.22l-63.21-0.22v-14.57h56.98c31.34,0,58.24-0.1,59.79-0.22l2.81-0.21l-0.24-13.51l-0.23-13.51
	l-59.55-0.43l-59.55-0.43V305.4l125.96-0.85l0.24-12.8c0.14-7.56-0.11-13.14-0.6-13.64
	C1508.28,276.87,1356.19,276.81,1355.15,278.06 M1521.67,278.18c-1.06,2.23-0.72,110.66,0.34,111.73c0.53,0.53,5.7,0.77,13.22,0.63
	l12.36-0.24l0.22-32.86l0.22-32.86l5.32,7.14c3.32,4.46,6.61,8.94,9.87,13.44c2.5,3.46,5.02,6.78,5.59,7.36
	c0.58,0.58,3.36,4.25,6.19,8.15s8.32,11.39,12.21,16.64c3.89,5.26,7.07,9.84,7.07,10.2c0,1.22,3.24,0.66,3.74-0.65
	c0.28-0.72,3.57-6.09,7.33-11.94c7.67-11.93,20.55-33.3,24.99-41.41c1.6-2.94,3.19-5.35,3.51-5.36c0.32-0.01,0.58,13.73,0.57,30.53
	c-0.01,17.43,0.32,30.88,0.77,31.32c0.43,0.43,6.54,0.68,13.57,0.55l12.79-0.23V277.11h-23.14l-3.68,5.57
	c-2.03,3.07-5.6,8.28-7.94,11.58c-6.62,9.34-16.31,23.82-23.96,35.79c-3.83,6.01-7.31,11.14-7.71,11.39
	c-0.41,0.26-2.1-1.57-3.74-4.06c-1.65-2.49-4.11-6.07-5.48-7.96c-1.36-1.89-5.64-7.86-9.5-13.29c-3.86-5.42-7.55-10.51-8.21-11.29
	c-0.65-0.79-1.6-2.21-2.1-3.15c-0.51-0.94-1.42-2.23-2.03-2.85s-4.11-5.48-7.77-10.78c-3.66-5.31-7.38-10.03-8.26-10.51
	c-0.89-0.47-7.02-0.86-13.63-0.86C1523.8,276.68,1522.3,276.86,1521.67,278.18 M1068.33,278.37c-5.32,1.29-14.2,6.44-18.54,10.74
	c-2.38,2.36-5.48,6.6-6.89,9.43l-2.57,5.15v59.21l2.88,5.85c1.58,3.21,4.11,7.12,5.62,8.68c3.32,3.42,10.66,8.12,15.92,10.2
	c5.67,2.24,28.35,3.27,63.84,2.89c27.95-0.3,30.37-0.44,35.56-2.17c10.91-3.62,19.03-10.48,23.44-19.79l2.7-5.7v-59.17l-3.17-6.11
	c-4.06-7.81-8.59-12.22-16.82-16.33l-6.58-3.29l-46.27-0.15C1092,277.75,1069.89,277.99,1068.33,278.37 M1224.78,278.84
	c-7.95,2.92-16.08,10.46-19.85,18.42c-2.46,5.18-2.65,6.24-2.65,15.03c0,8.98,0.15,9.74,2.86,15.27
	c4.29,8.71,10.42,14.2,19.92,17.83c4.39,1.67,6.79,1.79,45.29,2.14c46.19,0.42,43.75,0.01,43.75,7.23c0,2.6-0.54,4.71-1.5,5.88
	c-1.49,1.81-1.68,1.82-53.77,2.02l-52.27,0.21v27.44h107.11l6.53-2.41c9.58-3.53,15.79-8.81,19.83-16.89
	c3.02-6.03,3.22-6.94,3.29-14.58c0.1-12.23-2.11-18.48-8.95-25.31c-5.67-5.66-11.82-9.05-19.23-10.61
	c-2.95-0.62-18.02-0.95-43.01-0.95h-38.47l-1.33-1.91c-1.77-2.52-1.76-9.55,0.01-11.32c0.74-0.74,1.99-1.36,2.79-1.37
	c0.79-0.01,23.71,0,50.94,0.02c33.25,0.03,50.06-0.26,51.2-0.87c1.56-0.83,1.69-1.83,1.69-12.38c0-6.31-0.23-12.09-0.52-12.83
	c-0.47-1.22-6.12-1.35-55.48-1.3C1238.6,277.65,1227.36,277.89,1224.78,278.84 M1076.89,306.96c-1.82,1.94-1.86,2.49-1.86,26.94
	v24.95l2.89,1.79c2.82,1.74,3.86,1.79,42.89,1.79c44.3,0,44.33-0.01,45.37-5.22c0.3-1.49,0.54-12.48,0.54-24.42
	c0-21.15-0.47-25.64-2.84-27.15c-0.56-0.35-19.94-0.65-43.07-0.66l-42.05-0.01L1076.89,306.96z"/>
<path class="st1" d="M287.2,264.07c-0.26,1.2-0.16,14.53,0.22,29.62l0.7,27.45l12.37,0.27c12.84,0.28,15.05-0.26,15.05-3.68
	c0-2.77,6.21-8.41,10.53-9.58c13.88-3.74,24.91,10.23,18.3,23.17c-5.8,11.38-23.12,10.83-28.63-0.9l-1.65-3.52l-12.43-0.27
	c-6.83-0.15-12.75,0.07-13.15,0.49c-0.99,1.04-1.53,38.02-0.57,39.52c2.09,3.25,7.28,1.06,44.15-18.66l15.1-8.07l30.61-0.03
	l30.61-0.04l2.88-4.94c3.79-6.49,7.84-8.72,14.98-8.25c6.92,0.44,10.59,3.05,13.35,9.47c2.69,6.25,2.03,11.24-2.11,15.95
	c-3.86,4.39-7.4,6.13-12.51,6.13c-6.77,0-11.58-3.77-15.79-12.35c-0.09-0.17-13.86-0.26-30.6-0.2l-30.45,0.11l-18.69,9.84
	c-10.28,5.41-18.71,10.17-18.73,10.56c-0.02,0.39,11.58,0.72,25.76,0.72h25.79l2.05-4.21c2.81-5.79,8.87-8.81,15.97-7.97
	c2.73,0.33,6.05,1.38,7.38,2.35c3.18,2.32,6.75,9.42,6.75,13.44c0,13.95-16.63,21.16-26.67,11.57c-1.7-1.63-3.78-4.4-4.62-6.17
	l-1.53-3.22H287.6v32.26c0,22.74,0.31,32.27,1.06,32.27c0.58,0,2.21-0.76,3.61-1.68c1.48-0.97,2.97-1.91,4.48-2.83
	c4.58-2.73,38.16-22.42,46.08-27.03l8.7-5.06h56.35l1.49-3.57c3.08-7.38,9.47-11.36,17.06-10.63c8.07,0.78,13.28,6.19,13.98,14.51
	c0.55,6.59-1.63,11.5-6.56,14.76c-8.31,5.5-21.64,1.16-24.07-7.82c-0.51-1.89-1.35-1.95-28.56-2.21l-28.04-0.25l-5.6,3.46
	c-9.66,5.97-40.93,24.5-41.34,24.5c-0.22,0-2.17,1.12-4.33,2.49c-2.39,1.51-3.59,2.84-3.06,3.38c0.53,0.53,61.53,0.78,152.9,0.64
	l152.01-0.25V309.59h-58.71l-0.48,48.64l-0.48,48.64h-30.72l-0.08-21.67c-0.05-11.92-0.17-33.91-0.28-48.86l-0.2-27.2l-30.55-0.25
	l-30.56-0.26V280.7l76.03-0.49l76.03-0.48V262.4H402.64l-0.48,16.37l-0.48,16.37l-12.51,0.24c-14.96,0.28-16.84,0.63-16.84,3.12
	c0,3.18-5.35,8.31-10.05,9.63c-10.7,3-20.74-4.08-20.74-14.61c-0.01-5.83,0.99-8.32,4.86-12.1c8.53-8.35,21.57-5.43,26.3,5.9
	l1.46,3.49l8.96-0.01c14.43-0.02,13.38,1.17,13.06-14.79l-0.26-13.6l-108.23-0.5L287.2,264.07z"/>
</svg>
